<?xml version="1.0" standalone="no"?>
<!DOCTYPE svg PUBLIC "-//W3C//DTD SVG 20010904//EN"
 "http://www.w3.org/TR/2001/REC-SVG-20010904/DTD/svg10.dtd">
<svg version="1.0" xmlns="http://www.w3.org/2000/svg"
 width="500.000000pt" height="500.000000pt" viewBox="0 0 500.000000 500.000000"
 preserveAspectRatio="xMidYMid meet">
<metadata>
Created by potrace 1.11, written by Peter Selinger 2001-2013
</metadata>
<g transform="translate(0.000000,500.000000) scale(0.100000,-0.100000)"
fill="#000000" stroke="none">
<path d="M1330 3485 c-496 -90 -853 -539 -827 -1040 22 -417 284 -765 671
-894 170 -56 172 -56 1371 -27 1178 28 1152 26 1320 87 227 82 436 278 545
510 17 36 42 110 56 165 143 551 -208 1102 -763 1199 -121 21 -2256 21 -2373
0z m1642 -731 c97 -33 166 -120 175 -223 9 -100 -34 -192 -115 -246 -53 -35
-133 -44 -158 -19 -18 18 -20 19 -54 2 -114 -59 -218 38 -189 178 28 141 151
222 247 164 26 -16 32 -17 32 -5 0 11 12 15 49 15 l49 0 -29 -137 c-38 -181
-31 -200 47 -119 98 103 75 254 -49 318 -56 28 -149 35 -218 14 -124 -35 -190
-123 -197 -261 -4 -68 -1 -88 18 -128 38 -80 103 -122 215 -138 106 -15 230
16 279 70 13 14 31 21 58 21 35 0 38 -2 28 -19 -19 -37 -76 -85 -130 -110 -49
-23 -67 -26 -170 -26 -140 0 -198 17 -268 80 -87 78 -120 200 -88 324 33 128
100 204 217 245 58 20 192 20 251 0z m-808 -153 l23 -22 38 25 c57 39 117 36
161 -8 l34 -34 0 -156 0 -156 -50 0 -50 0 0 140 c0 136 -1 140 -24 155 -19 13
-29 13 -49 4 -38 -17 -47 -50 -47 -179 l0 -120 -50 0 -50 0 0 133 c0 147 -7
170 -54 170 -15 0 -38 -10 -49 -22 -20 -19 -22 -34 -26 -151 l-3 -130 -49 0
-49 0 0 185 0 185 50 0 c43 0 50 -3 50 -20 0 -18 2 -18 38 6 30 21 45 25 85
21 31 -3 56 -12 71 -26z"/>
<path d="M2791 2557 c-40 -20 -64 -62 -69 -121 -8 -93 13 -126 73 -117 47 7
87 80 89 160 0 44 -4 56 -23 72 -27 22 -37 23 -70 6z"/>
</g>
</svg>
